<svg viewBox="0 0 24 24" xmlns="http://www.w3.org/2000/svg" xmlns:xlink="http://www.w3.org/1999/xlink" width="24.000000" height="24.000000" fill="none">
	<rect id="Icon" width="24.000000" height="24.000000" x="0.000000" y="0.000000" fill="rgb(255,255,255)" fill-opacity="0" />
	<path id="Vector" d="M0 0L24 0L24 24L0 24L0 0Z" fill-rule="nonzero" />
	<path id="Vector" d="M16.5 6L16.5 17.5C16.5 19.71 14.71 21.5 12.5 21.5C10.29 21.5 8.5 19.71 8.5 17.5L8.5 5C8.5 3.62 9.62 2.5 11 2.5C12.38 2.5 13.5 3.62 13.5 5L13.5 15.5C13.5 16.05 13.05 16.5 12.5 16.5C11.95 16.5 11.5 16.05 11.5 15.5L11.5 6L10 6L10 15.5C10 16.88 11.12 18 12.5 18C13.88 18 15 16.88 15 15.5L15 5C15 2.79 13.21 1 11 1C8.79 1 7 2.79 7 5L7 17.5C7 20.54 9.46 23 12.5 23C15.54 23 18 20.54 18 17.5L18 6L16.5 6Z" fill="rgb(33.15,27.03,17.85)" fill-rule="nonzero" />
</svg>
