<svg viewBox="0 0 24 24" xmlns="http://www.w3.org/2000/svg" xmlns:xlink="http://www.w3.org/1999/xlink" width="24.000000" height="24.000000" fill="none">
	<rect id="linkedin" width="24.000000" height="24.000000" x="0.000000" y="0.000000" fill="rgb(255,255,255)" fill-opacity="0" />
	<path id="Vector" d="M0.605625 8.08744L5.28337 8.08744L5.28337 22.9093L0.605625 22.9093L0.605625 8.08744L0.605625 8.08744ZM2.82525 6.23363L2.7915 6.23363C1.09781 6.23363 0 5.10057 0 3.66432C0 2.19994 1.13025 1.09088 2.8575 1.09088C4.58325 1.09088 5.6445 2.19713 5.67825 3.66019C5.67825 5.09644 4.58325 6.23363 2.82506 6.23363L2.82525 6.23363ZM24 22.9091L18.6937 22.9091L18.6937 15.2391C18.6937 13.2315 17.8641 11.8609 16.0395 11.8609C14.6439 11.8609 13.8679 12.7858 13.5064 13.677C13.371 13.9969 13.3939 14.4426 13.3939 14.8883L13.3939 22.9089L8.13937 22.9089L8.13937 8.08707L13.3942 8.08707L13.3942 10.4132C13.7047 9.39619 15.3836 7.94457 18.0636 7.94457C21.3879 7.94457 23.9998 10.0764 23.9998 14.6674L23.9998 22.9089L24 22.9091Z" fill="rgb(0,126,187)" fill-rule="evenodd" />
</svg>
