<svg viewBox="0 0 24 24" xmlns="http://www.w3.org/2000/svg" xmlns:xlink="http://www.w3.org/1999/xlink" width="24.000000" height="24.000000" fill="none">
	<rect id="stackoverflow" width="24.000000" height="24.000000" x="0.000000" y="0.000000" fill="rgb(255,255,255)" fill-opacity="0" />
	<path id="Vector" d="M19.1231 9.80625L13.7396 1.97587L12.0533 3.11587L17.4371 10.944L19.1233 9.804L19.1231 9.80625ZM17.1051 11.2237L8.87476 6.40819L7.83751 8.15062L16.0684 12.9645L17.1053 11.2217L17.1051 11.2237ZM15.9004 13.5384L6.67313 11.0769L6.14251 13.0312L15.3707 15.4912L15.9004 13.5367L15.9004 13.5384ZM15.2728 16.1775L5.75813 15.3081L5.57063 17.3237L15.0857 18.1922L15.2728 16.1775ZM21.5001 9.33375L19.8656 0L17.8543 0.345937L19.4888 9.68156L21.5001 9.33562L21.5001 9.33375ZM15.0431 20.7962L5.48738 20.8007L5.48663 18.777L15.042 18.7721L15.0431 20.7962L15.0431 20.7962Z" fill="rgb(255,129,15)" fill-rule="evenodd" />
	<path id="Vector" d="M16.6658 14.1394L16.6658 22.4124L4.1325 22.4124L4.1325 14.1394L2.49994 14.1394L2.49994 24L18.2901 24L18.2901 14.1394L16.6658 14.1394Z" fill="rgb(190,188,188)" fill-rule="evenodd" />
</svg>
